<?xml version="1.0" encoding="iso-8859-1"?>
<!-- Uploaded to: SVG Repo, www.svgrepo.com, Generator: SVG Repo Mixer Tools -->
<svg fill="#000000" version="1.1" id="Layer_1" xmlns="http://www.w3.org/2000/svg" xmlns:xlink="http://www.w3.org/1999/xlink" 
	 viewBox="0 0 512 512" xml:space="preserve">
<g>
	<g>
		<path d="M477.193,350.526c-5.85,1.033-11.699,2.076-17.601,2.76l-67.278,7.814c-46.042,5.347-92.659,2.832-137.858-7.442
			l-24.603-5.592c-30.115-6.844-60.9-10.299-91.783-10.299H47.116C21.094,337.77,0,358.865,0,384.887s21.094,47.116,47.116,47.116
			h308.871c46.58,0,92.796-8.212,136.524-24.259C504.219,403.448,512,392.303,512,379.833
			C512,361.019,494.939,347.392,477.193,350.526z"/>
	</g>
</g>
<g>
	<g>
		<path d="M460.172,274.217c-23.245-5.166-46.018-12.031-67.76-20.34l-36.369,58.242l-28.323-17.686l33.577-53.772
			c-6.805-3.198-13.472-6.534-19.969-10.014l-33.646,53.508l-28.267-17.774l33.173-52.757c-5.953-3.891-11.711-7.903-17.249-12.035
			l-33.525,54.452l-28.435-17.506l36.104-58.643c-1.708-1.626-3.423-3.288-5.142-4.999L148.86,253.886l-17.543-25.647l-8.991,6.506
			c-6.813,4.93-10.872,12.577-11.137,20.982c-0.265,8.406,3.305,16.294,9.794,21.643l33.126,27.306
			c27.967,1.006,55.865,4.63,83.143,10.83l24.603,5.592c27.277,6.2,55.29,9.343,83.263,9.343c14.428,0,29.01-0.844,43.343-2.509
			l67.278-7.814c4.783-0.555,9.863-1.454,15.241-2.403l0.402-0.071c3.602-0.637,7.278-0.959,10.927-0.959
			c5.969,0,11.74,0.853,17.218,2.411C501.042,304.613,496.847,282.367,460.172,274.217z"/>
	</g>
</g>
<g>
	<g>
		
			<rect x="136.649" y="139.902" transform="matrix(0.8254 -0.5646 0.5646 0.8254 -58.8316 133.1812)" width="98.463" height="43.588"/>
	</g>
</g>
<g>
	<g>
		<path d="M193.182,89.843c-12.381-11.734-31.736-13.333-45.979-2.888L43.143,163.266c-19.712,14.455-31.342,37.449-31.304,61.893
			l0.132,87.311c10.626-5.178,22.551-8.091,35.145-8.091h54.134l-1.506-1.241c-14.53-11.977-22.522-29.641-21.929-48.462
			c0.593-18.82,9.683-35.943,24.938-46.982l9.707-7.023l-25.914-37.886L193.182,89.843z"/>
	</g>
</g>
</svg>