<?xml version="1.0" encoding="iso-8859-1"?>
<!-- Uploaded to: SVG Repo, www.svgrepo.com, Generator: SVG Repo Mixer Tools -->
<svg fill="#000000" height="800px" width="800px" version="1.1" id="Layer_1" xmlns="http://www.w3.org/2000/svg" xmlns:xlink="http://www.w3.org/1999/xlink" 
	 viewBox="0 0 512 512" xml:space="preserve">
<g>
	<g>
		<path d="M92.164,186.126c-7.384,0-11.67,3.573-11.67,11.433v33.824c0,7.861,4.287,11.433,11.67,11.433
			c7.385,0,11.911-3.573,11.911-11.433V197.56C104.075,189.699,99.549,186.126,92.164,186.126z"/>
	</g>
</g>
<g>
	<g>
		<path d="M201.498,262.825c-7.384,0-11.671,3.573-11.671,11.433v33.824c0,7.86,4.289,11.433,11.671,11.433
			s11.91-3.573,11.91-11.433v-33.824C213.407,266.399,208.882,262.825,201.498,262.825z"/>
	</g>
</g>
<g>
	<g>
		<path d="M496.607,94.801H337.077l-0.736,0.736l13.112,13.112c10.517,10.517,10.517,27.63,0,38.147l-13.112,13.112l13.112,13.112
			c10.517,10.517,10.517,27.63,0,38.147l-13.112,13.112l13.112,13.112c10.517,10.517,10.517,27.63,0,38.147l-13.112,13.112
			l13.112,13.112c10.517,10.517,10.517,27.63,0,38.147l-13.112,13.112l13.112,13.112c5.096,5.094,7.901,11.868,7.901,19.073
			c0,7.206-2.806,13.98-7.901,19.074l-12.919,12.92h160.072c8.501,0,15.393-6.892,15.393-15.393V110.195
			C512,101.693,505.108,94.801,496.607,94.801z"/>
	</g>
</g>
<g>
	<g>
		<path d="M321.306,192.095l-13.112-13.112c-5.096-5.094-7.901-11.868-7.901-19.073c0-7.206,2.806-13.98,7.901-19.074l13.112-13.112
			l-13.112-13.112c-5.445-5.445-8.046-12.658-7.853-19.809H15.393C6.892,94.801,0,101.693,0,110.195v291.611
			c0,8.501,6.892,15.393,15.393,15.393h284.905c0.049-7.132,2.846-13.832,7.896-18.881l13.112-13.112l-13.112-13.112
			c-10.517-10.517-10.517-27.63,0-38.147l13.112-13.112l-13.112-13.112c-10.517-10.517-10.517-27.63,0-38.147l13.112-13.112
			l-13.112-13.112c-10.517-10.517-10.517-27.63,0-38.147L321.306,192.095z M56.436,231.384V197.56
			c0-23.581,15.484-32.157,35.73-32.157c20.009,0,35.731,8.576,35.731,32.157v33.824c0,23.582-15.722,32.157-35.731,32.157
			C71.919,263.54,56.436,254.965,56.436,231.384z M106.219,350.482c-8.099,0-13.339-6.669-13.339-12.624
			c0-1.429,0.476-3.096,1.191-4.526l83.606-171.739c1.906-4.049,5.717-5.955,10.004-5.955c6.669,0,14.053,5.002,14.053,12.624
			c0,1.429-0.238,3.096-0.952,4.526l-83.846,171.739C115.27,348.1,110.744,350.482,106.219,350.482z M237.226,308.083
			c0,23.582-15.721,32.157-35.73,32.157c-20.246,0-35.73-8.575-35.73-32.157v-33.824c0-23.582,15.482-32.157,35.73-32.157
			c20.009,0,35.73,8.575,35.73,32.157V308.083z"/>
	</g>
</g>
</svg>